<?xml version="1.0" encoding="utf-8"?>
<!-- Generator: Adobe Illustrator 23.0.1, SVG Export Plug-In . SVG Version: 6.00 Build 0)  -->
<svg version="1.1" id="Layer_1" xmlns="http://www.w3.org/2000/svg" xmlns:xlink="http://www.w3.org/1999/xlink" x="0px" y="0px"
	 viewBox="0 0 302.4 235.6" style="enable-background:new 0 0 302.4 235.6;" xml:space="preserve">
<style type="text/css">
	.st0{fill:#010101;}
</style>
<g>
	<path class="st0" d="M290.6,104.9h-12v36.7h-14.5v-36.7h-12V90.8h38.4v14.1H290.6z"/>
	<path class="st0" d="M285.7,197.8v15.3h-38.1v-58h37.7v15.1h-21.1v6.3h19.1v14.9h-19.1v6.5h21.5V197.8z"/>
	<path class="st0" d="M266.1,76.9l-14.6-25.2v25.2h-16.8V18.1h16.8v23.5l13.8-23.5h18.6l-17.5,28.6l18.3,30.2H266.1z"/>
	<g>
		<polygon class="st0" points="231.7,90.8 231.7,114 215.8,90.8 204.2,90.8 204.2,141.5 218.7,141.5 218.7,118.3 234.6,141.5 
			246.2,141.5 246.2,90.8 		"/>
		<path class="st0" d="M220.2,181.5L202,155h-12.1c0.2-2.5,0.4-5,0.4-7.6c0-2-0.1-3.9-0.2-5.9h5.3V90.8h-14.5v19.7
			c-8.4-15.2-21.9-27.1-38.5-33.6h21.9V61.4h-21.8v-6.6h19.3v-15h-19.3v-6.4h21.4V18.1h-38.2v54.3c-3.3-0.5-6.7-0.8-10.2-0.9
			l-8.8-16.7c5.5-3.4,9.1-9.1,9.1-16.2c0-12.7-9.6-20.7-22.3-20.7H69.9v58.8h14.7C71.5,81.8,60.3,90.2,52,101
			c-2.9-6.5-9.3-10.3-16.9-10.3H14.9v50.7h14.5v-14.3h5.8c1.4,0,2.8-0.1,4.1-0.4c-1.8,6.5-2.8,13.4-2.8,20.6
			c0,42.6,33.7,75.9,76.8,75.9c37.7,0,68.3-25.6,75.3-60.5V213h16.6v-26.5l18.2,26.5h13.3v-58h-16.6L220.2,181.5L220.2,181.5z
			 M35.2,113.1h-5.8v-8.3h5.8c2.2,0,4,1.5,4,4.1S37.4,113.1,35.2,113.1z M86.7,33.5h6.4c3.5,0,5.8,2.1,5.8,5.5s-2.3,5.5-5.8,5.4
			h-6.4V33.5z M86.7,58.3h4.2l7.4,14.6c-4,0.8-7.8,1.8-11.6,3.1V58.3z M113.4,207.3c-34.1,0-60.8-26.3-60.8-59.9
			s26.7-59.9,60.8-59.9s60.8,26.3,60.8,59.9S147.5,207.3,113.4,207.3z"/>
		<path class="st0" d="M60.3,59.6c0-5.9-2.9-10.3-7.6-13c3.7-2.7,5.9-6.7,5.9-11.9c0-10.6-7.1-16.5-20.3-16.5H14.9V77h24.9
			C53.3,76.9,60.3,70.2,60.3,59.6z M31.7,32.5h5.5c2.3,0,4.5,1.2,4.5,3.9c0,2.5-1.7,3.6-3.6,3.9l-6.5,0.1v-7.9H31.7z M31.7,62.5
			v-8.4l8,0.1c2.3,0.3,3.8,1.8,3.8,4.1c0,2.5-2,4.2-4.7,4.2C38.8,62.5,31.7,62.5,31.7,62.5z"/>
		<path class="st0" d="M191.1,69.3h17l2,7.6h18.1l-18.7-58.8h-19.7L171,76.9h18.1L191.1,69.3z M199.6,37.8l4.9,18.1h-9.7L199.6,37.8
			z"/>
	</g>
</g>
</svg>
