<svg version="1.1" viewBox="0.0 0.0 960.0 540.0" fill="none" stroke="none" stroke-linecap="square" stroke-miterlimit="10" xmlns:xlink="http://www.w3.org/1999/xlink" xmlns="http://www.w3.org/2000/svg"><clipPath id="p.0"><path d="m0 0l960.0 0l0 540.0l-960.0 0l0 -540.0z" clip-rule="nonzero"/></clipPath><g clip-path="url(#p.0)"><path fill="#212121" d="m0 0l960.0 0l0 540.0l-960.0 0z" fill-rule="evenodd"/><path fill="#000000" fill-opacity="0.0" d="m32.725285 78.1706l894.5512 0l0 215.49606l-894.5512 0z" fill-rule="evenodd"/><path fill="#ffffff" d="m181.44693 268.02667l0 -56.15625l7.828125 0l0 26.484375l12.890625 -26.484375l7.28125 0l-11.09375 24.75l12.890625 31.40625l-7.625 0l-10.734375 -26.34375l-3.609375 6.515625l0 19.828125l-7.828125 0zm43.88481 0.546875q-4.71875 0 -7.296875 -1.828125q-2.5625 -1.84375 -3.5625 -5.40625q-1.0 -3.578125 -1.0 -8.765625l0 -9.15625q0 -5.34375 1.03125 -8.875q1.046875 -3.53125 3.640625 -5.328125q2.609375 -1.8125 7.1875 -1.8125q5.046875 0 7.4375 2.078125q2.40625 2.078125 3.15625 6.0q0.765625 3.921875 0.765625 9.390625l0 3.265625l-15.796875 0l0 8.03125q0 2.4375 0.4375 3.96875q0.453125 1.515625 1.453125 2.25q1.015625 0.71875 2.609375 0.71875q1.65625 0 2.515625 -0.796875q0.875 -0.796875 1.1875 -2.28125q0.3125 -1.5 0.3125 -3.515625l0 -2.421875l7.21875 0l0 1.53125q0 6.03125 -2.578125 9.5q-2.5625 3.453125 -8.71875 3.453125zm-4.4375 -24.46875l8.515625 0l0 -3.59375q0 -2.5 -0.28125 -4.203125q-0.265625 -1.703125 -1.140625 -2.5625q-0.859375 -0.875 -2.734375 -0.875q-1.796875 0 -2.734375 0.84375q-0.9375 0.828125 -1.28125 2.8125q-0.34375 1.96875 -0.34375 5.4375l0 2.140625zm33.62462 24.46875q-4.71875 0 -7.296875 -1.828125q-2.5625 -1.84375 -3.5625 -5.40625q-1.0 -3.578125 -1.0 -8.765625l0 -9.15625q0 -5.34375 1.03125 -8.875q1.046875 -3.53125 3.640625 -5.328125q2.609375 -1.8125 7.1875 -1.8125q5.046875 0 7.4375 2.078125q2.40625 2.078125 3.15625 6.0q0.765625 3.921875 0.765625 9.390625l0 3.265625l-15.796875 0l0 8.03125q0 2.4375 0.4375 3.96875q0.453125 1.515625 1.453125 2.25q1.015625 0.71875 2.609375 0.71875q1.65625 0 2.515625 -0.796875q0.875 -0.796875 1.1875 -2.28125q0.3125 -1.5 0.3125 -3.515625l0 -2.421875l7.21875 0l0 1.53125q0 6.03125 -2.578125 9.5q-2.5625 3.453125 -8.71875 3.453125zm-4.4375 -24.46875l8.515625 0l0 -3.59375q0 -2.5 -0.28125 -4.203125q-0.265625 -1.703125 -1.140625 -2.5625q-0.859375 -0.875 -2.734375 -0.875q-1.796875 0 -2.734375 0.84375q-0.9375 0.828125 -1.28125 2.8125q-0.34375 1.96875 -0.34375 5.4375l0 2.140625zm22.530884 37.09375l0 -53.25l7.40625 0l0 3.203125q1.328125 -1.53125 3.1875 -2.640625q1.875 -1.109375 4.4375 -1.109375q3.125 0 4.953125 1.625q1.84375 1.625 2.75 4.09375q0.90625 2.453125 1.171875 4.984375q0.28125 2.53125 0.28125 4.34375l0 9.703125q0 4.234375 -0.828125 8.015625q-0.828125 3.765625 -3.015625 6.09375q-2.1875 2.3125 -6.140625 2.3125q-2.140625 0 -3.8125 -1.0625q-1.65625 -1.078125 -2.984375 -2.46875l0 16.15625l-7.40625 0zm12.75 -18.4375q1.9375 0 2.765625 -1.421875q0.84375 -1.421875 1.046875 -3.84375q0.203125 -2.4375 0.203125 -5.34375l0 -9.703125q0 -2.5 -0.28125 -4.609375q-0.265625 -2.125 -1.171875 -3.359375q-0.90625 -1.25 -2.84375 -1.25q-1.453125 0 -2.78125 0.625q-1.3125 0.609375 -2.28125 1.453125l0 25.640625q1.046875 0.765625 2.359375 1.296875q1.328125 0.515625 2.984375 0.515625zm48.733948 5.890625q-5.953125 0 -9.25 -2.5q-3.296875 -2.5 -4.578125 -6.71875q-1.28125 -4.234375 -1.28125 -9.4375l0 -19.828125q0 -5.671875 1.28125 -9.90625q1.28125 -4.234375 4.578125 -6.546875q3.296875 -2.328125 9.25 -2.328125q5.265625 0 8.34375 1.9375q3.09375 1.9375 4.4375 5.546875q1.359375 3.609375 1.359375 8.671875l0 4.4375l-7.40625 0l0 -3.953125q0 -3.125 -0.3125 -5.515625q-0.3125 -2.390625 -1.703125 -3.703125q-1.390625 -1.328125 -4.640625 -1.328125q-3.328125 0 -4.859375 1.421875q-1.53125 1.421875 -1.984375 4.03125q-0.4375 2.59375 -0.4375 6.0625l0 22.25q0 4.234375 0.6875 6.703125q0.703125 2.453125 2.296875 3.5q1.59375 1.03125 4.296875 1.03125q3.1875 0 4.5625 -1.421875q1.390625 -1.421875 1.734375 -3.90625q0.359375 -2.5 0.359375 -5.828125l0 -4.171875l7.40625 0l0 4.171875q0 5.125 -1.25 9.046875q-1.234375 3.90625 -4.296875 6.09375q-3.046875 2.1875 -8.59375 2.1875zm32.032043 -0.078125q-4.4375 0 -7.0 -1.796875q-2.5625 -1.796875 -3.640625 -5.125q-1.078125 -3.328125 -1.078125 -7.84375l0 -11.640625q0 -4.5 1.078125 -7.828125q1.078125 -3.328125 3.640625 -5.125q2.5625 -1.8125 7.0 -1.8125q4.4375 0 6.96875 1.8125q2.53125 1.796875 3.59375 5.125q1.078125 3.328125 1.078125 7.828125l0 11.640625q0 4.515625 -1.078125 7.84375q-1.0625 3.328125 -3.59375 5.125q-2.53125 1.796875 -6.96875 1.796875zm0 -5.46875q2.15625 0 3.015625 -1.25q0.875 -1.25 1.046875 -3.296875q0.171875 -2.046875 0.171875 -4.265625l0 -12.546875q0 -2.28125 -0.171875 -4.28125q-0.171875 -2.015625 -1.046875 -3.296875q-0.859375 -1.296875 -3.015625 -1.296875q-2.140625 0 -3.046875 1.296875q-0.90625 1.28125 -1.078125 3.296875q-0.171875 2.0 -0.171875 4.28125l0 12.546875q0 2.21875 0.171875 4.265625q0.171875 2.046875 1.078125 3.296875q0.90625 1.25 3.046875 1.25zm29.464447 5.46875q-4.4375 0 -7.0 -1.796875q-2.5625 -1.796875 -3.640625 -5.125q-1.078125 -3.328125 -1.078125 -7.84375l0 -11.640625q0 -4.5 1.078125 -7.828125q1.078125 -3.328125 3.640625 -5.125q2.5625 -1.8125 7.0 -1.8125q4.4375 0 6.96875 1.8125q2.53125 1.796875 3.59375 5.125q1.078125 3.328125 1.078125 7.828125l0 11.640625q0 4.515625 -1.078125 7.84375q-1.0625 3.328125 -3.59375 5.125q-2.53125 1.796875 -6.96875 1.796875zm0 -5.46875q2.15625 0 3.015625 -1.25q0.875 -1.25 1.046875 -3.296875q0.171875 -2.046875 0.171875 -4.265625l0 -12.546875q0 -2.28125 -0.171875 -4.28125q-0.171875 -2.015625 -1.046875 -3.296875q-0.859375 -1.296875 -3.015625 -1.296875q-2.140625 0 -3.046875 1.296875q-0.90625 1.28125 -1.078125 3.296875q-0.171875 2.0 -0.171875 4.28125l0 12.546875q0 2.21875 0.171875 4.265625q0.171875 2.046875 1.078125 3.296875q0.90625 1.25 3.046875 1.25zm19.136322 4.921875l0 -56.15625l7.421875 0l0 56.15625l-7.421875 0zm30.080353 -17.328125l0 -5.625l15.46875 0l0 5.625l-15.46875 0zm35.429413 17.328125l11.921875 -56.15625l7.5625 0l12.0 56.15625l-7.421875 0l-2.5625 -14.140625l-11.4375 0l-2.703125 14.140625l-7.359375 0zm11.09375 -19.765625l9.359375 0l-4.703125 -25.296875l-4.65625 25.296875zm34.734436 20.3125q-5.0625 0 -7.5625 -3.703125q-2.484375 -3.703125 -2.484375 -12.578125l0 -7.765625q0 -4.578125 0.75 -8.484375q0.765625 -3.921875 2.875 -6.28125q2.125 -2.359375 6.21875 -2.359375q2.015625 0 3.671875 0.90625q1.65625 0.890625 2.984375 2.21875l0 -18.65625l7.421875 0l0 56.15625l-7.421875 0l0 -2.5625q-1.328125 1.390625 -2.890625 2.25q-1.546875 0.859375 -3.5625 0.859375zm1.875 -5.8125q1.046875 0 2.21875 -0.375q1.171875 -0.390625 2.359375 -1.15625l0 -26.265625q-0.96875 -0.703125 -2.15625 -1.21875q-1.171875 -0.515625 -2.5625 -0.515625q-2.5625 0 -3.46875 2.46875q-0.890625 2.453125 -0.890625 5.921875l0 11.296875q0 2.765625 0.296875 5.03125q0.3125 2.25 1.28125 3.53125q0.984375 1.28125 2.921875 1.28125zm25.517944 5.8125q-2.359375 0 -4.171875 -1.34375q-1.796875 -1.359375 -2.84375 -3.46875q-1.03125 -2.109375 -1.03125 -4.46875q0 -3.75 1.25 -6.3125q1.25 -2.5625 3.421875 -4.328125q2.1875 -1.765625 5.0625 -3.078125q2.875 -1.328125 6.078125 -2.578125l0 -2.84375q0 -2.421875 -0.28125 -4.015625q-0.28125 -1.59375 -1.15625 -2.390625q-0.859375 -0.796875 -2.59375 -0.796875q-1.515625 0 -2.453125 0.703125q-0.9375 0.6875 -1.359375 1.96875q-0.40625 1.28125 -0.40625 3.015625l0 2.0l-7.359375 -0.265625q0.140625 -6.65625 3.046875 -9.8125q2.921875 -3.15625 9.015625 -3.15625q5.96875 0 8.453125 3.265625q2.5 3.25 2.5 9.421875l0 18.296875q0 1.875 0.109375 3.609375q0.109375 1.734375 0.28125 3.234375q0.171875 1.484375 0.3125 2.796875l-6.796875 0q-0.203125 -1.109375 -0.515625 -2.796875q-0.3125 -1.703125 -0.453125 -3.09375q-0.703125 2.359375 -2.6875 4.40625q-1.96875 2.03125 -5.421875 2.03125zm2.90625 -6.375q1.109375 0 2.078125 -0.625q0.96875 -0.625 1.734375 -1.421875q0.765625 -0.796875 1.046875 -1.28125l0 -11.359375q-1.734375 0.96875 -3.265625 1.9375q-1.53125 0.96875 -2.671875 2.046875q-1.140625 1.078125 -1.796875 2.4375q-0.65625 1.34375 -0.65625 3.078125q0 2.421875 0.890625 3.8125q0.90625 1.375 2.640625 1.375zm19.417725 19.0l0 -53.25l7.40625 0l0 3.203125q1.328125 -1.53125 3.1875 -2.640625q1.875 -1.109375 4.4375 -1.109375q3.125 0 4.953125 1.625q1.84375 1.625 2.75 4.09375q0.90625 2.453125 1.171875 4.984375q0.28125 2.53125 0.28125 4.34375l0 9.703125q0 4.234375 -0.828125 8.015625q-0.828125 3.765625 -3.015625 6.09375q-2.1875 2.3125 -6.140625 2.3125q-2.140625 0 -3.8125 -1.0625q-1.65625 -1.078125 -2.984375 -2.46875l0 16.15625l-7.40625 0zm12.75 -18.4375q1.9375 0 2.765625 -1.421875q0.84375 -1.421875 1.046875 -3.84375q0.203125 -2.4375 0.203125 -5.34375l0 -9.703125q0 -2.5 -0.28125 -4.609375q-0.265625 -2.125 -1.171875 -3.359375q-0.90625 -1.25 -2.84375 -1.25q-1.453125 0 -2.78125 0.625q-1.3125 0.609375 -2.28125 1.453125l0 25.640625q1.046875 0.765625 2.359375 1.296875q1.328125 0.515625 2.984375 0.515625zm28.842163 5.8125q-3.125 0 -5.03125 -1.171875q-1.90625 -1.171875 -2.78125 -3.3125q-0.859375 -2.15625 -0.859375 -5.078125l0 -26.140625l-4.21875 0l0 -4.921875l4.21875 0l0 -11.703125l7.421875 0l0 11.703125l6.453125 0l0 4.921875l-6.453125 0l0 25.65625q0 2.359375 0.765625 3.375q0.765625 1.0 2.90625 1.0q0.5625 0 1.28125 -0.0625q0.734375 -0.078125 1.421875 -0.15625l0 5.484375q-1.390625 0.203125 -2.5625 0.296875q-1.171875 0.109375 -2.5625 0.109375zm11.165527 -0.546875l0 -40.078125l7.40625 0l0 40.078125l-7.40625 0zm0 -46.03125l0 -7.765625l7.40625 0l0 7.765625l-7.40625 0zm20.579285 46.03125l-7.890625 -40.078125l7.484375 0l4.921875 32.25l4.984375 -32.25l7.21875 0l-7.625 40.078125l-9.09375 0zm32.597595 0.546875q-4.71875 0 -7.296875 -1.828125q-2.5625 -1.84375 -3.5625 -5.40625q-1.0 -3.578125 -1.0 -8.765625l0 -9.15625q0 -5.34375 1.03125 -8.875q1.046875 -3.53125 3.640625 -5.328125q2.609375 -1.8125 7.1875 -1.8125q5.046875 0 7.4375 2.078125q2.40625 2.078125 3.15625 6.0q0.765625 3.921875 0.765625 9.390625l0 3.265625l-15.796875 0l0 8.03125q0 2.4375 0.4375 3.96875q0.453125 1.515625 1.453125 2.25q1.015625 0.71875 2.609375 0.71875q1.65625 0 2.515625 -0.796875q0.875 -0.796875 1.1875 -2.28125q0.3125 -1.5 0.3125 -3.515625l0 -2.421875l7.21875 0l0 1.53125q0 6.03125 -2.578125 9.5q-2.5625 3.453125 -8.71875 3.453125zm-4.4375 -24.46875l8.515625 0l0 -3.59375q0 -2.5 -0.28125 -4.203125q-0.265625 -1.703125 -1.140625 -2.5625q-0.859375 -0.875 -2.734375 -0.875q-1.796875 0 -2.734375 0.84375q-0.9375 0.828125 -1.28125 2.8125q-0.34375 1.96875 -0.34375 5.4375l0 2.140625zm48.797607 23.921875l-12.546875 -56.15625l7.34375 0l8.875 41.390625l8.46875 -41.390625l7.140625 0l-12.421875 56.15625l-6.859375 0zm25.244995 0l0 -56.15625l11.296875 0q5.609375 0 9.28125 1.5q3.671875 1.484375 5.4375 4.78125q1.78125 3.28125 1.78125 8.625q0 3.265625 -0.703125 5.9375q-0.6875 2.65625 -2.21875 4.5q-1.515625 1.828125 -4.015625 2.671875l7.96875 28.140625l-7.546875 0l-7.359375 -26.34375l-6.09375 0l0 26.34375l-7.828125 0zm7.828125 -31.953125l2.984375 0q3.328125 0 5.40625 -0.828125q2.078125 -0.84375 3.046875 -2.84375q0.96875 -2.015625 0.96875 -5.625q0 -4.921875 -1.8125 -7.109375q-1.796875 -2.1875 -7.125 -2.1875l-3.46875 0l0 18.59375z" fill-rule="nonzero"/></g></svg>